<svg xmlns="http://www.w3.org/2000/svg" width="320" height="240" viewBox="0 0 320 240" role="img" aria-labelledby="title desc"><title id="title">travelking banner illustration</title><desc id="desc">travelking product themed illustration.</desc><circle cx="184" cy="120" r="101" fill="#46bee0" opacity=".13"/><circle cx="224" cy="63" r="30" fill="#ffd66f"/><path d="M53 207h225M78 207V95l82-42 83 42v112" fill="#173d4d" stroke="#71d5eb" stroke-width="5" stroke-linejoin="round"/><path d="M67 103h181m-153-7V71h40v25m37 0V71h40v25" fill="none" stroke="#a6e8ee" stroke-width="4"/><g fill="#ffd66f"><rect x="97" y="119" width="22" height="26" rx="3"/><rect x="139" y="119" width="22" height="26" rx="3"/><rect x="181" y="119" width="22" height="26" rx="3"/><rect x="97" y="159" width="22" height="26" rx="3"/><rect x="181" y="159" width="22" height="26" rx="3"/></g><path d="M138 207v-37a22 22 0 0 1 44 0v37" fill="#4d8b70" stroke="#9cdaa7" stroke-width="4"/></svg>
