<svg xmlns="http://www.w3.org/2000/svg" width="320" height="240" viewBox="0 0 320 240" role="img" aria-labelledby="t d"><title id="t">CHICME fashion</title><desc id="d">Fashion dress on a hanger with rose and pink accents.</desc><defs><linearGradient id="f" x1="0" y1="0" x2="1" y2="1"><stop stop-color="#ff78b5"/><stop offset="1" stop-color="#c62d78"/></linearGradient></defs><circle cx="181" cy="126" r="94" fill="#ff4b9c" opacity=".13"/><path d="M167 38c0-14 22-14 22 0 0 8-8 10-11 17m-1-3-70 39 42 15 28-15 27 15 42-15-69-39" fill="none" stroke="#ffd2e7" stroke-width="5" stroke-linecap="round" stroke-linejoin="round"/><path d="m153 107-38 17 26 76h78l26-76-38-17-22 14h-10z" fill="url(#f)" stroke="#ffc4df" stroke-width="4" stroke-linejoin="round"/><path d="m168 121 10 17 11-17m-50 15 21 5m56-5-22 5m-38 26h44" fill="none" stroke="#ffe4ef" stroke-width="3" stroke-linecap="round"/><path d="m69 56 7 17 18 1-14 11 5 18-16-10-15 10 5-18-15-11 19-1z" fill="#ff91c0"/><circle cx="260" cy="72" r="10" fill="#ffc1dc"/></svg>
